<svg id="Ebene_1" data-name="Ebene 1" xmlns="http://www.w3.org/2000/svg" viewBox="0 0 887.52 347.46"><defs><style>.cls-1{fill:#fff;}</style></defs><title>wimmerlogo_Version_ok_neg</title><path class="cls-1" d="M220.93,351.34a70.39,70.39,0,0,1-45.06-16.12,70.39,70.39,0,0,1-45.06,16.12c-35.38,0-65-25.68-69-59.74l0-.49V160.35a4.25,4.25,0,1,1,8.5,0v130.5c3.57,29.66,29.54,52,60.52,52A61.79,61.79,0,0,0,173,326.45l2.89-2.68,2.89,2.68a61.81,61.81,0,0,0,42.17,16.39c31,0,57-22.33,60.53-52V162.11a4.25,4.25,0,0,1,8.5,0V291.35l0,.25C286,325.66,256.31,351.34,220.93,351.34Z" transform="translate(-61.79 -15.39)"/><path class="cls-1" d="M130.81,306c-13.84,0-25.1-10-25.1-22.4v-.13a3.38,3.38,0,0,1,0-.45V166.11a4.25,4.25,0,0,1,8.5,0V283.63c0,7.66,7.44,13.9,16.6,13.9s16.63-6.24,16.63-13.9V166.11a4.25,4.25,0,0,1,8.5,0V283.63C155.94,296,144.66,306,130.81,306Z" transform="translate(-61.79 -15.39)"/><path class="cls-1" d="M219.51,306c-13.84,0-25.1-10-25.1-22.4v-.13c0-.15,0-.3,0-.45V166.11a4.25,4.25,0,0,1,8.5,0V283.63c0,7.66,7.44,13.9,16.6,13.9s16.63-6.24,16.63-13.9V166.11a4.25,4.25,0,0,1,8.5,0V283.63C244.64,296,233.36,306,219.51,306Z" transform="translate(-61.79 -15.39)"/><path class="cls-1" d="M545.91,293.57a4.25,4.25,0,0,1-4.25-4.25V202.85c-2.93-19.42-24.19-34.58-48.57-34.58-12.82,0-25,3.86-34.17,10.87l-2.57,2-2.58-2c-9.21-7-21.35-10.87-34.17-10.87-24.38,0-45.64,15.16-48.57,34.58v86.47a4.25,4.25,0,0,1-8.5,0V202.24l0-.29c3.35-23.66,28.39-42.18,57-42.18a65.86,65.86,0,0,1,36.75,10.76,65.8,65.8,0,0,1,36.74-10.76c28.64,0,53.69,18.52,57,42.18l0,.59v86.78A4.25,4.25,0,0,1,545.91,293.57Z" transform="translate(-61.79 -15.39)"/><path class="cls-1" d="M510.09,293.57a4.25,4.25,0,0,1-4.25-4.25V212.55c0-4.29-5.83-7.92-12.75-7.92s-12.77,3.71-12.77,7.92v76.77a4.25,4.25,0,0,1-8.5,0V212.55c0-9.2,9.34-16.42,21.27-16.42,11.64,0,20.81,6.88,21.24,15.77h0v.44a1.22,1.22,0,0,1,0,.27v76.71A4.25,4.25,0,0,1,510.09,293.57Z" transform="translate(-61.79 -15.39)"/><path class="cls-1" d="M437.76,293.57a4.25,4.25,0,0,1-4.25-4.25V213.75c0-.15,0-1.46,0-2v-.22c0-3.88-5.6-6.92-12.75-6.92-6.8,0-12.78,3.71-12.78,7.92v76.77a4.25,4.25,0,0,1-8.5,0V212.55c0-9.2,9.35-16.42,21.28-16.42,12.32,0,21.25,6.49,21.25,15.42v.21c0,.51,0,1.71,0,2.14h0v75.42A4.25,4.25,0,0,1,437.76,293.57Z" transform="translate(-61.79 -15.39)"/><path class="cls-1" d="M747,293.57a4.25,4.25,0,0,1-4.25-4.25V202.85c-2.93-19.42-24.19-34.58-48.57-34.58-12.82,0-25,3.86-34.17,10.87l-2.58,2-2.57-2c-9.21-7-21.35-10.87-34.17-10.87-24.38,0-45.64,15.16-48.57,34.58v86.47a4.25,4.25,0,1,1-8.5,0V202.24l0-.29c3.34-23.66,28.39-42.18,57-42.18a65.8,65.8,0,0,1,36.74,10.76,65.86,65.86,0,0,1,36.75-10.76c28.64,0,53.69,18.52,57,42.18l0,.59v86.78A4.25,4.25,0,0,1,747,293.57Z" transform="translate(-61.79 -15.39)"/><path class="cls-1" d="M711.22,293.57a4.25,4.25,0,0,1-4.25-4.25V212.55c0-4.29-5.84-7.92-12.75-7.92s-12.77,3.71-12.77,7.92v76.77a4.25,4.25,0,0,1-8.5,0V212.55c0-9.2,9.34-16.42,21.27-16.42,11.64,0,20.81,6.88,21.24,15.77h0v.44a1.22,1.22,0,0,1,0,.27v76.71A4.25,4.25,0,0,1,711.22,293.57Z" transform="translate(-61.79 -15.39)"/><path class="cls-1" d="M638.89,293.57a4.25,4.25,0,0,1-4.25-4.25V213.76c0-.15,0-1.47,0-2v-.22c0-3.88-5.6-6.92-12.75-6.92-6.8,0-12.77,3.71-12.77,7.92v76.77a4.25,4.25,0,1,1-8.5,0V212.55c0-9.2,9.34-16.42,21.27-16.42,12.32,0,21.25,6.49,21.25,15.42v.21c0,.51,0,1.72,0,2.14h0v75.42A4.25,4.25,0,0,1,638.89,293.57Z" transform="translate(-61.79 -15.39)"/><path class="cls-1" d="M306,293.57a4.25,4.25,0,0,1-4.25-4.25v-123a4.25,4.25,0,0,1,8.5,0v123A4.25,4.25,0,0,1,306,293.57Z" transform="translate(-61.79 -15.39)"/><path class="cls-1" d="M347.8,293.57a4.25,4.25,0,0,1-4.25-4.25v-123a4.25,4.25,0,1,1,8.5,0v123A4.25,4.25,0,0,1,347.8,293.57Z" transform="translate(-61.79 -15.39)"/><path class="cls-1" d="M891.08,293.57a4.25,4.25,0,0,1-4.25-4.25V202.24l0-.29c3.34-23.66,28.39-42.18,57-42.18a4.25,4.25,0,1,1,0,8.5c-24.37,0-45.64,15.16-48.56,34.58v86.47A4.25,4.25,0,0,1,891.08,293.57Z" transform="translate(-61.79 -15.39)"/><path class="cls-1" d="M928,293.57a4.25,4.25,0,0,1-4.25-4.25V212.55c0-9.2,9.34-16.42,21.28-16.42a4.25,4.25,0,0,1,0,8.5c-6.81,0-12.78,3.71-12.78,7.92v76.77A4.25,4.25,0,0,1,928,293.57Z" transform="translate(-61.79 -15.39)"/><path class="cls-1" d="M807.1,252.73l-3.33-3.44A29.76,29.76,0,0,1,841,203.38l4.06,2.55Zm18-45.41a21.25,21.25,0,0,0-18.25,32.17l25.13-31A21.31,21.31,0,0,0,825.14,207.32Z" transform="translate(-61.79 -15.39)"/><path class="cls-1" d="M825.14,297.3a68.72,68.72,0,1,1,52.63-112.91L880,187l-27.37,36-20.91,25.8a21.13,21.13,0,0,0,11.63-9.22,4.25,4.25,0,0,1,7.27,4.42,29.59,29.59,0,0,1-25.44,14.31,30.93,30.93,0,0,1-3.54-.21l-7.66-.91,32-39.49L869,187.34a60.21,60.21,0,1,0,4.47,77.16,4.25,4.25,0,1,1,6.81,5.07A69,69,0,0,1,825.14,297.3Z" transform="translate(-61.79 -15.39)"/><path class="cls-1" d="M290.24,104.9c0-.9,0-1.78.11-2.66-6.14-11.07-10.18-24.58-10.18-37.55,0-7.42.11-14.58,2.15-21.34L266.9,42.18a70.86,70.86,0,0,0-.35,7.31c.2,24.47,10,42.09,23.69,55.58Z" transform="translate(-61.79 -15.39)"/><path class="cls-1" d="M293.17,88.93c.35-.82.74-1.62,1.15-2.4-1.33-12.59.23-26.6,5.3-38.54,2.9-6.83,5.8-13.38,10.32-18.8L296.2,22.08a70.4,70.4,0,0,0-3.18,6.6c-9.38,22.6-7.26,42.63.09,60.42Z" transform="translate(-61.79 -15.39)"/><path class="cls-1" d="M303.14,78.26c.63-.67,1.29-1.31,2-1.93,3.49-12.44,10.21-25.33,19.4-35.12,5.26-5.6,10.41-10.94,16.64-14.68L331,15.39c-1.86,1.67-3.69,3.41-5.43,5.29C308.42,39.29,302.86,59.09,303,78.4Z" transform="translate(-61.79 -15.39)"/><path class="cls-1" d="M314.39,70.31c.9-.35,1.81-.64,2.72-.91,8.64-10.65,20.58-20.06,33.59-25.05,7.45-2.86,14.67-5.5,22.26-6l-5-16.51a74.85,74.85,0,0,0-7.47,2.45C336,33.94,322.28,50.9,314.22,70.38Z" transform="translate(-61.79 -15.39)"/><path class="cls-1" d="M332.42,64c.94,0,1.86,0,2.78.12,11.55-6.14,25.66-10.18,39.19-10.18,7.75,0,15.22.11,22.27,2.15l1.22-15.42c-2.51-.23-5.05-.38-7.63-.36-25.54.2-43.92,10-58,23.7Z" transform="translate(-61.79 -15.39)"/><path class="cls-1" d="M348.67,69.81c.87.35,1.71.74,2.54,1.15,13.16-1.62,27.86-.24,40.46,4.85,7.2,2.91,14.11,5.83,19.87,10.46l7.19-14.52c-2.25-1.16-4.56-2.26-7-3.21-23.84-9.4-44.78-6.82-63.27,1.21Z" transform="translate(-61.79 -15.39)"/><path class="cls-1" d="M362.59,77.75c.68.64,1.32,1.31,1.94,2C377.2,83.2,390.26,90,400.08,99.3c5.62,5.34,11,10.58,14.65,16.94l11.67-10.49c-1.66-1.9-3.41-3.76-5.29-5.53-18.67-17.47-38.84-23-58.65-22.59Z" transform="translate(-61.79 -15.39)"/><path class="cls-1" d="M294.46,122.45c-.36-.85-.67-1.7-1-2.56-10.38-8-19.71-19.08-24.92-31.35-3-7-5.75-13.83-6.48-21.06L246.71,72.7a73.23,73.23,0,0,0,2.6,7.06c10,23.07,26.54,35.72,45.22,42.85C294.51,122.56,294.48,122.51,294.46,122.45Z" transform="translate(-61.79 -15.39)"/><path class="cls-1" d="M298.94,134.9c-.6-.63-1.16-1.29-1.71-2-11.9-3.58-23.93-10.33-32.69-19.49-5-5.24-9.76-10.37-12.84-16.55l-11.92,9.81a69.69,69.69,0,0,0,4.68,5.41c16.65,17.13,35.59,22.83,54.6,22.9Z" transform="translate(-61.79 -15.39)"/><path class="cls-1" d="M287.49,146.55v-1.47a68.62,68.62,0,0,1-15.93-4.58c-6.66-2.86-13-5.73-18.29-10.21L246.13,144c1.68.92,3.4,1.78,5.18,2.57Z" transform="translate(-61.79 -15.39)"/><path class="cls-1" d="M350.28,146.55a93.15,93.15,0,0,0,4.52-8.77l-.17.08c-.89.36-1.78.67-2.67,1a93.17,93.17,0,0,1-7.45,7.73Z" transform="translate(-61.79 -15.39)"/><path class="cls-1" d="M363.18,146.55a90.36,90.36,0,0,0,1.91-16.77l-.13.14c-.67.68-1.37,1.31-2.09,1.93a91,91,0,0,1-6.09,14.7Z" transform="translate(-61.79 -15.39)"/><path class="cls-1" d="M369.23,146.55h7.93A86.56,86.56,0,0,0,371.11,121a1.34,1.34,0,0,1-.07.18c-.35.88-.75,1.74-1.16,2.59A92.91,92.91,0,0,1,369.23,146.55Z" transform="translate(-61.79 -15.39)"/><path class="cls-1" d="M385.47,146.55h11.31a82.58,82.58,0,0,0-21.92-37.94c0,.06,0,.12,0,.19,0,1,0,1.9-.06,2.84A91.16,91.16,0,0,1,385.47,146.55Z" transform="translate(-61.79 -15.39)"/><path class="cls-1" d="M373.94,95.9c10.28,8.48,19.44,20.17,24.45,32.87,2.35,6,4.54,11.8,5.6,17.78h16.19c-.72-2.5-1.77-6-2.61-8.14-9.65-23.89-26-37.38-44.62-45.32,0,0,.05.11.08.16C373.37,94.13,373.67,95,373.94,95.9Z" transform="translate(-61.79 -15.39)"/><path class="cls-1" d="M345.92,347.14c-5.78,1.77-11,4.22-17.47,4.22-13.33,0-20.61-11-20.61-23.32s7.89-26.32,20.67-26.32a14.51,14.51,0,0,1,5.38,1.09,12.45,12.45,0,0,0,4,1c1.77,0,4-1.29,5.51-2l2.51,15.57-2.86.41c-3.12-5.64-6.86-12.65-14.34-12.65-8.23,0-9.18,9.86-9.18,20.06,0,12.51,4.62,22.1,12,22.1a11.47,11.47,0,0,0,4-.68V334.84l-3.54-.48V331h17.41v3.4l-3.54.48Z" transform="translate(-61.79 -15.39)"/><path class="cls-1" d="M390.05,350.34v-3.13l3.2-.41V328.17c0-2.58-1.5-4.35-4.49-4.35-3.33,0-5,2.38-5,3.6V346.8l3.19.41v3.13H371.63v-3.13l3.19-.41V328.17c0-2.58-1.49-4.35-4.49-4.35s-5,2.18-5,3.6V346.8l3.2.41v3.13H353.2v-3.13l3.2-.41V326.06c0-1.42-1.84-1.9-3.68-1.9V321l10-4.28a24,24,0,0,1,2.31,6.12c2.11-3.26,5.3-6.12,9.45-6.12a8.57,8.57,0,0,1,8.43,6.25c2.45-3.53,5.17-6.25,10-6.25,5.23,0,9.25,4.49,9.25,12.37V346.8l3.19.41v3.13Z" transform="translate(-61.79 -15.39)"/><path class="cls-1" d="M418.21,298.39v22.37c2.31-2.58,4.08-4,7.48-4,7.27,0,11,8.3,11,16.18s-4.89,18.36-13.73,18.36c-4,0-6.67-1.5-9.52-5l-4.56,5-1.56-.88c2-4.56,2-9.11,2-12.11V307.43c0-1.22-2.18-1.63-3.2-1.63v-3.13Zm0,45.28c0,2.66,1.22,4.36,3.67,4.36,5.51,0,5.91-7.35,5.91-11.43,0-7.2-1.83-13.6-6.52-13.6a3.61,3.61,0,0,0-3.06,2.11Z" transform="translate(-61.79 -15.39)"/><path class="cls-1" d="M470.63,323.62v-17l-3.6-.48v-3.4h18v3.4l-3.61.48v39.84l3.61.48v3.4H467v-3.4l3.6-.48v-19H456v19l3.6.48v3.4h-18v-3.4l3.6-.48V306.62l-3.6-.48v-3.4h18v3.4l-3.6.48v17Z" transform="translate(-61.79 -15.39)"/><path class="cls-1" d="M549.31,337.9c-3.2,7.27-8.64,13.46-17.27,13.46-11.56,0-19.72-9.52-19.72-22,0-19.11,9.79-27.61,19.72-27.61a20.92,20.92,0,0,1,5.64.75,14.31,14.31,0,0,0,3.88.75,8.75,8.75,0,0,0,4.21-1.5l2.52,16-3.13.61c-2.18-5.5-6.73-13.19-13.46-13.19-6.94,0-7.69,10.54-7.69,15.5,0,9.25,1.16,25,11.36,25,5.64,0,8.7-5.1,11.29-9.25Z" transform="translate(-61.79 -15.39)"/><path class="cls-1" d="M587.45,335.45h.28V312.53c0-4.14-1-6-5.71-6.39v-3.4h13.8v3.4c-3.61,0-4.83,3-4.83,6.39v37.81h-6.32L562,313.49l-.14.13V341c0,3.87,2.31,5.57,5.71,6v3.4H553.8v-3.4c3.33-.48,4.83-2.93,4.83-6V309.88c0-2.58-3.13-3.4-4.83-3.74v-3.4h13.87Z" transform="translate(-61.79 -15.39)"/><path class="cls-1" d="M636.48,337.9c-3.19,7.27-8.63,13.46-17.27,13.46-11.56,0-19.72-9.52-19.72-22,0-19.11,9.8-27.61,19.72-27.61a21,21,0,0,1,5.65.75,14.24,14.24,0,0,0,3.87.75,8.79,8.79,0,0,0,4.22-1.5l2.51,16-3.13.61c-2.17-5.5-6.73-13.19-13.46-13.19-6.93,0-7.68,10.54-7.68,15.5,0,9.25,1.15,25,11.35,25,5.65,0,8.71-5.1,11.29-9.25Z" transform="translate(-61.79 -15.39)"/><path class="cls-1" d="M640.77,337.69v-7.34h17v7.34Z" transform="translate(-61.79 -15.39)"/><path class="cls-1" d="M663.48,350.34v-3.4l3.6-.48V306.62l-3.6-.48v-3.4H688.3c3.53,0,7.34-.27,9.38-1l2.92,15.85-3,.81c-3.12-7.68-6.73-11.83-15.5-11.83-1.5,0-2.86.07-4.22.2v17.68h2.59c4.89,0,6-3,7.07-7.14h2.86v18.16h-2.86c-1.09-4.63-2.18-7.62-7.07-7.62h-2.59v18.63l3.61.48v3.4Z" transform="translate(-61.79 -15.39)"/><path class="cls-1" d="M728,341.7c-2.86,5.92-6.73,9.59-13.53,9.59-8.64,0-13.06-8.36-13.06-17.13,0-8.5,4.9-17.41,14.22-17.41,8.36,0,11.28,7.75,12,14.62l-16.32,5.57c1,3.27,3.06,7.28,7.35,7.28,3.39,0,5-2.11,6.86-4.69ZM715.5,331.1c2.38-.68,3.67-1.7,3.67-3.88,0-4.22-1.09-7.07-4.49-7.07-4,0-4.35,6.12-4.35,9a26.76,26.76,0,0,0,.21,3.4Z" transform="translate(-61.79 -15.39)"/><path class="cls-1" d="M729.92,321l10.74-4.28A36.14,36.14,0,0,1,743,327.49h.14c1-3.6,3.26-10.74,8.63-10.74,3.13,0,5,1.83,5,5.1,0,2.31-1.49,4.83-5.37,4.83a13.25,13.25,0,0,1-3.67-.55c-1.49,1-3.6,5.17-3.6,13.94,0,2.65.07,4.83.07,6.73l3.19.41v3.13H732v-3.13l3.2-.41V332.86c0-2.58,0-8.77-3.67-8.77-.55,0-1,.07-1.63.07Z" transform="translate(-61.79 -15.39)"/><path class="cls-1" d="M769.49,342.86a3.13,3.13,0,0,0,3.13,3,7.93,7.93,0,0,0,3.74-1.22l1.43,2.58a12.31,12.31,0,0,1-9.52,4.08c-4.49,0-7.69-2.45-7.69-6.94V322H756.5V317.7h4.22v-9l8.91-4.35V317.7h6.66V322h-6.8Z" transform="translate(-61.79 -15.39)"/><path class="cls-1" d="M791.45,316.75V346.8l3.2.41v3.13h-15.3v-3.13l3.2-.41v-21c0-1.22-2.18-1.63-3.2-1.63V321ZM787,313.28a5.79,5.79,0,1,1,5.44-5.78A5.58,5.58,0,0,1,787,313.28Z" transform="translate(-61.79 -15.39)"/><path class="cls-1" d="M812.67,339.59c-1.16,0-2.11-.13-3-.06-.89.47-2.93,1.22-2.93,2.44,0,1.43,1.84,1.57,8.44,1.84,7,.2,13.12,1.63,13.12,8.91,0,8.43-7.62,10.13-16.93,10.13-8.91,0-13.94-1.16-13.94-5.92,0-3.12,2.92-4.42,5.17-6.05-2-.2-4.76-1.22-4.76-3.6,0-3.74,5.17-6.87,7.75-9-3.6-2-6.26-4.83-6.26-9.46,0-8.43,5.92-12,13.74-12a1.45,1.45,0,0,0,.75-.2c3.67-3,6.46-6.87,10.26-6.87,3.06,0,4.42,1.43,4.42,4.35a3.79,3.79,0,0,1-4,4c-3,0-3.67-2.58-4.21-2.58-.82,0-2.32,1.42-3.2,2.45,5.17,1.63,8.63,5.16,8.63,10.87C825.72,336.4,820.22,339.59,812.67,339.59Zm-4.9,12.18a4.6,4.6,0,0,0-4.07,4.14c0,3.74,5.3,3.81,9,3.81s9-.07,9-3.81c0-2.17-1.49-3.33-4.83-3.53Zm4.76-15.3c4.08,0,4.29-6.19,4.29-8.3s-.21-8.29-4.29-8.29-4.28,6.18-4.28,8.29S808.45,336.47,812.53,336.47Z" transform="translate(-61.79 -15.39)"/><path class="cls-1" d="M841.77,316.75v23.53c0,2.58,1.5,4.35,4.49,4.35s4.83-1.91,5-3.61V325.79c0-1.22-2.17-1.63-3.19-1.63V321l12.1-4.28v26.86a1.86,1.86,0,0,0,1.9,2,5.2,5.2,0,0,0,1.3-.14v3.13L854,351.29a18.41,18.41,0,0,1-2.31-5.78h-.13c-1.7,3.54-4.63,5.78-8.78,5.78-6.79,0-9.92-3.54-9.92-9.72V325.79c0-1.22-2.18-1.63-3.2-1.63V321Z" transform="translate(-61.79 -15.39)"/><path class="cls-1" d="M884.41,350.34v-3.13l3.19-.41V328.17c0-2.58-1.49-4.35-4.48-4.35s-5,2.31-5,3.6V346.8l3.19.41v3.13H866v-3.13l3.2-.41V326.06c0-1.42-1.84-1.9-3.67-1.9V321l10-4.28a24,24,0,0,1,2.31,6.12c2.11-3.26,5.31-6.12,9.45-6.12,5.24,0,9.25,4.49,9.25,12V346.8l3.2.41v3.13Z" transform="translate(-61.79 -15.39)"/><path class="cls-1" d="M917.93,339.59c-1.15,0-2.1-.13-3-.06-.88.47-2.92,1.22-2.92,2.44,0,1.43,1.83,1.57,8.43,1.84,7,.2,13.12,1.63,13.12,8.91,0,8.43-7.61,10.13-16.93,10.13-8.91,0-13.94-1.16-13.94-5.92,0-3.12,2.93-4.42,5.17-6.05-2-.2-4.76-1.22-4.76-3.6,0-3.74,5.17-6.87,7.75-9-3.6-2-6.25-4.83-6.25-9.46,0-8.43,5.91-12,13.73-12a1.45,1.45,0,0,0,.75-.2c3.67-3,6.46-6.87,10.27-6.87,3,0,4.42,1.43,4.42,4.35a3.8,3.8,0,0,1-4,4c-3,0-3.67-2.58-4.21-2.58-.82,0-2.31,1.42-3.2,2.45,5.17,1.63,8.64,5.16,8.64,10.87C931,336.4,925.48,339.59,917.93,339.59ZM913,351.77a4.61,4.61,0,0,0-4.08,4.14c0,3.74,5.3,3.81,9,3.81s9-.07,9-3.81c0-2.17-1.49-3.33-4.82-3.53Zm4.76-15.3c4.08,0,4.28-6.19,4.28-8.3s-.2-8.29-4.28-8.29-4.29,6.18-4.29,8.29S913.72,336.47,917.8,336.47Z" transform="translate(-61.79 -15.39)"/></svg>